<svg width="284" height="110" viewBox="0 0 284 110" fill="none" xmlns="http://www.w3.org/2000/svg">
<path d="M279.765 109.31C280.302 109.44 280.842 109.11 280.972 108.573L283.084 99.8243C283.213 99.2874 282.883 98.7471 282.346 98.6176C281.81 98.488 281.269 98.8181 281.14 99.355L279.263 107.132L271.486 105.255C270.949 105.125 270.409 105.455 270.279 105.992C270.15 106.529 270.48 107.069 271.017 107.199L279.765 109.31ZM280.853 107.817C280.512 107.258 280.166 106.697 279.817 106.135L278.118 107.189C278.464 107.748 278.807 108.305 279.147 108.86L280.853 107.817ZM277.682 102.746C276.962 101.62 276.228 100.49 275.481 99.3564L273.811 100.457C274.553 101.583 275.282 102.706 275.997 103.824L277.682 102.746ZM273.264 96.0399C272.513 94.9313 271.749 93.8198 270.973 92.7063L269.332 93.8501C270.103 94.9564 270.862 96.0607 271.609 97.1621L273.264 96.0399ZM268.669 89.4469C267.893 88.3632 267.105 87.2782 266.306 86.1928L264.695 87.3784C265.489 88.4568 266.272 89.5348 267.043 90.6116L268.669 89.4469ZM263.902 82.9701C263.101 81.9102 262.289 80.8505 261.467 79.7916L259.887 81.0182C260.704 82.0702 261.51 83.1232 262.307 84.1763L263.902 82.9701ZM258.97 76.6185C258.142 75.5807 257.305 74.5444 256.458 73.5102L254.91 74.7775C255.752 75.8049 256.584 76.8344 257.406 77.8655L258.97 76.6185ZM253.89 70.4173C253.03 69.3948 252.161 68.375 251.282 67.3585L249.769 68.6664C250.642 69.6761 251.505 70.6891 252.36 71.7048L253.89 70.4173ZM248.64 64.3436C247.75 63.3423 246.852 62.345 245.945 61.3522L244.469 62.701C245.369 63.6869 246.261 64.6774 247.145 65.6718L248.64 64.3436ZM243.22 58.4106C242.305 57.4362 241.381 56.4668 240.449 55.5031L239.011 56.8935C239.936 57.8502 240.854 58.8126 241.763 59.7801L243.22 58.4106ZM237.632 52.6333C236.689 51.686 235.737 50.7449 234.778 49.8106L233.383 51.2433C234.335 52.1704 235.279 53.1044 236.215 54.0447L237.632 52.6333ZM231.878 47.0287C230.904 46.1091 229.923 45.1969 228.934 44.2927L227.584 45.7685C228.565 46.6655 229.539 47.5704 230.505 48.4828L231.878 47.0287ZM225.947 41.6052C224.944 40.7176 223.933 39.8385 222.916 38.9685L221.616 40.4886C222.625 41.3511 223.627 42.2228 224.622 43.103L225.947 41.6052ZM219.835 36.3807C218.802 35.5276 217.761 34.6843 216.713 33.8514L215.469 35.4168C216.507 36.2421 217.538 37.0778 218.563 37.9233L219.835 36.3807ZM213.543 31.3781C212.476 30.5621 211.403 29.7572 210.323 28.9639L209.139 30.5757C210.208 31.3612 211.271 32.1584 212.328 32.9666L213.543 31.3781ZM207.064 26.6196C205.964 25.8451 204.857 25.0829 203.744 24.3338L202.628 25.9929C203.729 26.7341 204.824 27.4883 205.913 28.255L207.064 26.6196ZM200.384 22.1241C199.254 21.3989 198.118 20.6874 196.976 19.9904L195.934 21.6975C197.063 22.3865 198.186 23.0899 199.303 23.8071L200.384 22.1241ZM193.51 17.9298C192.349 17.258 191.181 16.6014 190.008 15.9606L189.05 17.7158C190.208 18.3486 191.361 18.9972 192.509 19.661L193.51 17.9298ZM186.444 14.072C185.247 13.4575 184.045 12.8599 182.837 12.2797L181.971 14.0826C183.163 14.6549 184.349 15.2447 185.53 15.8512L186.444 14.072ZM179.187 10.5884C177.955 10.0384 176.718 9.50703 175.476 8.99486L174.714 10.8439C175.938 11.3485 177.157 11.8723 178.371 12.4146L179.187 10.5884ZM171.734 7.51681C170.473 7.04059 169.207 6.58457 167.935 6.14947L167.288 8.04172C168.539 8.46993 169.786 8.91888 171.028 9.38786L171.734 7.51681ZM164.099 4.90507C162.813 4.51102 161.522 4.13878 160.226 3.78905L159.705 5.71993C160.978 6.06373 162.248 6.42975 163.513 6.81733L164.099 4.90507ZM156.308 2.80402C154.998 2.49888 153.683 2.21718 152.364 1.95966L151.981 3.9226C153.276 4.17546 154.567 4.45212 155.855 4.75191L156.308 2.80402ZM148.388 1.25925C147.058 1.05045 145.724 0.866651 144.386 0.708577L144.151 2.69476C145.464 2.84981 146.773 3.03014 148.078 3.23505L148.388 1.25925ZM140.368 0.312772C139.028 0.207219 137.684 0.127919 136.338 0.0755891L136.26 2.07408C137.58 2.12537 138.897 2.20311 140.211 2.30659L140.368 0.312772ZM132.287 0.000210681C130.949 0.00250713 129.607 0.0318956 128.262 0.0890779L128.347 2.08727C129.664 2.03126 130.979 2.00245 132.291 2.00021L132.287 0.000210681ZM124.223 0.344411C122.886 0.4567 121.547 0.596913 120.205 0.765706L120.454 2.75007C121.769 2.58473 123.081 2.44739 124.39 2.33739L124.223 0.344411ZM116.217 1.35097C114.886 1.57443 113.553 1.82648 112.218 2.10776L112.63 4.0648C113.938 3.78921 115.244 3.54228 116.549 3.32337L116.217 1.35097ZM108.315 3.01255C107.016 3.34138 105.715 3.6983 104.413 4.08391L104.98 6.0016C106.257 5.62355 107.532 5.27369 108.806 4.95142L108.315 3.01255ZM100.548 5.31179C99.2937 5.73756 98.0383 6.19036 96.782 6.67069L97.4963 8.5388C98.7291 8.06747 99.9606 7.62326 101.191 7.20566L100.548 5.31179ZM93.0106 8.19479C91.7875 8.71583 90.5638 9.26337 89.3395 9.83786L90.1891 11.6484C91.3918 11.0841 92.5937 10.5463 93.7945 10.0348L93.0106 8.19479ZM85.739 11.6048C84.5384 12.22 83.3374 12.8615 82.1362 13.5297L83.1084 15.2775C84.2899 14.6202 85.4709 13.9895 86.651 13.3848L85.739 11.6048ZM78.6772 15.5278C77.5415 16.2082 76.4057 16.913 75.2699 17.6423L76.3506 19.3252C77.4692 18.6069 78.5874 17.9131 79.7052 17.2434L78.6772 15.5278ZM71.8627 19.9047C70.7768 20.6495 69.6911 21.4171 68.6055 22.2079L69.7831 23.8245C70.8536 23.0447 71.9239 22.288 72.994 21.554L71.8627 19.9047ZM65.408 24.6051C64.3424 25.4267 63.2771 26.2709 62.2121 27.1381L63.475 28.689C64.5264 27.8328 65.5778 26.9996 66.6292 26.189L65.408 24.6051ZM59.1246 29.7178C58.1304 30.5696 57.1366 31.4417 56.1433 32.3344L57.4802 33.822C58.4619 32.9397 59.4438 32.078 60.4259 31.2365L59.1246 29.7178ZM53.1649 35.0742C52.1771 36.0039 51.1898 36.9542 50.2031 37.9254L51.6061 39.3508C52.5823 38.3899 53.5588 37.45 54.5356 36.5306L53.1649 35.0742ZM47.4366 40.7047C46.515 41.6495 45.594 42.6128 44.6736 43.5946L46.1327 44.9624C47.0442 43.9901 47.9561 43.0365 48.8683 42.1013L47.4366 40.7047ZM41.9143 46.5963C41.0195 47.5887 40.1254 48.5989 39.2319 49.6271L40.7416 50.9389C41.6272 49.9198 42.5132 48.9187 43.3997 47.9356L41.9143 46.5963ZM36.6768 52.6194C35.8257 53.6334 34.9754 54.6639 34.1257 55.7112L35.6788 56.9712C36.5216 55.9325 37.3649 54.9105 38.2087 53.9052L36.6768 52.6194ZM31.579 58.9033C30.7549 59.9535 29.9316 61.0196 29.109 62.1019L30.7013 63.3121C31.5177 62.2379 32.3348 61.1799 33.1524 60.1379L31.579 58.9033ZM26.7548 65.2463C25.9708 66.3092 25.1875 67.3869 24.405 68.4796L26.031 69.6441C26.8082 68.5589 27.586 67.4888 28.3644 66.4335L26.7548 65.2463ZM22.0598 71.8025C21.2848 72.9166 20.5106 74.0456 19.7373 75.1895L21.3942 76.3096C22.1626 75.173 22.9318 74.0513 23.7016 72.9446L22.0598 71.8025ZM17.571 78.4362C16.8497 79.5316 16.1291 80.6402 15.4093 81.7621L17.0926 82.8421C17.8082 81.7268 18.5245 80.6249 19.2414 79.5362L17.571 78.4362ZM13.2522 85.1677C12.534 86.3163 11.8166 87.4782 11.1 88.6537L12.8077 89.6947C13.5204 88.5257 14.2338 87.3702 14.948 86.2281L13.2522 85.1677ZM9.0274 92.0951C8.36404 93.21 7.70138 94.3366 7.03952 95.475L8.76855 96.4803C9.42706 95.3476 10.0863 94.2268 10.7462 93.1178L9.0274 92.0951ZM5.05621 98.9257C4.3959 100.088 3.73635 101.262 3.07763 102.448L4.82601 103.419C5.48162 102.239 6.138 101.07 6.7951 99.9138L5.05621 98.9257ZM1.10388 106.041C0.775355 106.646 0.447046 107.254 0.118952 107.865L1.88092 108.812C2.20758 108.203 2.53439 107.598 2.86141 106.996L1.10388 106.041Z" fill="#3B71FE"/>
</svg>
