<svg width="257" height="100" viewBox="0 0 257 100" fill="none" xmlns="http://www.w3.org/2000/svg">
<path d="M253.967 0.745798C253.827 0.211655 253.28 -0.107543 252.746 0.0328488L244.041 2.32067C243.507 2.46106 243.188 3.00788 243.328 3.54202C243.469 4.07616 244.016 4.39536 244.55 4.25497L252.287 2.22135L254.321 9.95856C254.461 10.4927 255.008 10.8119 255.542 10.6715C256.076 10.5311 256.395 9.9843 256.255 9.45016L253.967 0.745798ZM0.167023 23.2361C0.532306 23.786 0.902032 24.3363 1.27615 24.8867L2.93026 23.7625C2.56011 23.2179 2.19433 22.6735 1.83298 22.1295L0.167023 23.2361ZM3.5733 28.1909C4.34438 29.2755 5.13216 30.3599 5.93631 31.4432L7.54221 30.2511C6.74621 29.1788 5.96648 28.1055 5.20337 27.032L3.5733 28.1909ZM8.36812 34.6507C9.18365 35.7041 10.0144 36.7555 10.8601 37.804L12.4168 36.5483C11.5795 35.5102 10.757 34.4693 9.94957 33.4264L8.36812 34.6507ZM13.4172 40.9107C14.2752 41.9323 15.1473 42.9502 16.0331 43.9637L17.539 42.6475C16.6618 41.644 15.7983 40.636 14.9488 39.6244L13.4172 40.9107ZM18.7093 46.9654C19.6083 47.9539 20.5203 48.9372 21.4451 49.9146L22.8979 48.5399C21.9822 47.5722 21.0791 46.5986 20.1889 45.6198L18.7093 46.9654ZM24.2367 52.8065C25.1755 53.7599 26.1265 54.7067 27.0895 55.646L28.486 54.2144C27.5327 53.2845 26.5912 52.3472 25.6618 51.4033L24.2367 52.8065ZM29.9942 58.4226C30.9719 59.3383 31.9611 60.2459 32.9614 61.1447L34.2981 59.657C33.3081 58.7675 32.3291 57.8692 31.3614 56.9628L29.9942 58.4226ZM35.9783 63.7989C36.9941 64.6737 38.0207 65.5392 39.0578 66.3944L40.3302 64.8513C39.3042 64.0053 38.2886 63.1491 37.2835 62.2835L35.9783 63.7989ZM42.1865 68.9176C43.2397 69.7481 44.303 70.5677 45.3763 71.3757L46.5792 69.7779C45.518 68.979 44.4665 68.1685 43.4249 67.3471L42.1865 68.9176ZM48.6167 73.7577C49.7065 74.5396 50.8059 75.3093 51.9147 76.066L53.042 74.414C51.9464 73.6663 50.8598 72.9056 49.7826 72.1327L48.6167 73.7577ZM55.2665 78.2947C56.3928 79.024 57.5283 79.7396 58.6725 80.4407L59.7174 78.7354C58.5875 78.043 57.4662 77.3363 56.3536 76.6159L55.2665 78.2947ZM62.133 82.5007C63.2954 83.1726 64.4664 83.8292 65.6458 84.4698L66.6004 82.7124C65.4368 82.0803 64.2812 81.4323 63.1338 80.7691L62.133 82.5007ZM69.2114 86.3445C70.409 86.9533 71.6146 87.5454 72.8282 88.1199L73.684 86.3123C72.4877 85.7459 71.2989 85.1621 70.1178 84.5616L69.2114 86.3445ZM76.4945 89.7913C77.7255 90.331 78.9642 90.8523 80.2103 91.3546L80.958 89.4996C79.7308 89.0049 78.5105 88.4913 77.2974 87.9596L76.4945 89.7913ZM83.9713 92.8038C85.2332 93.2676 86.5023 93.7116 87.7782 94.135L88.4081 92.2367C87.1526 91.8202 85.9036 91.3832 84.6613 90.9266L83.9713 92.8038ZM91.6263 95.3424C92.9153 95.7236 94.2109 96.0835 95.5128 96.4212L96.015 94.4852C94.7351 94.1532 93.4612 93.7994 92.1935 93.4245L91.6263 95.3424ZM99.4373 97.3671C100.748 97.659 102.065 97.9282 103.388 98.1738L103.753 96.2074C102.454 95.9662 101.16 95.7018 99.872 95.4149L99.4373 97.3671ZM107.373 98.8392C108.701 99.036 110.034 99.2087 111.372 99.3567L111.592 97.3688C110.278 97.2236 108.97 97.054 107.666 96.8608L107.373 98.8392ZM115.397 99.725C116.734 99.8219 118.077 99.8937 119.424 99.9395L119.492 97.9407C118.171 97.8957 116.854 97.8253 115.541 97.7302L115.397 99.725ZM123.464 99.9988C124.806 99.9925 126.152 99.9601 127.502 99.9009L127.414 97.9028C126.09 97.9608 124.771 97.9926 123.455 97.9988L123.464 99.9988ZM131.528 99.6454C132.867 99.534 134.21 99.396 135.556 99.2305L135.312 97.2454C133.992 97.4077 132.675 97.5431 131.362 97.6523L131.528 99.6454ZM139.538 98.662C140.868 98.4457 142.202 98.2021 143.538 97.9309L143.14 95.9709C141.829 96.237 140.522 96.4758 139.217 96.688L139.538 98.662ZM147.449 97.0586C148.753 96.7415 150.06 96.3976 151.369 96.0262L150.823 94.1022C149.539 94.4666 148.256 94.8041 146.976 95.1152L147.449 97.0586ZM155.219 94.856C156.488 94.4446 157.759 94.0071 159.031 93.5429L158.346 91.664C157.096 92.1199 155.849 92.5496 154.603 92.9535L155.219 94.856ZM162.82 92.083C164.045 91.5858 165.271 91.0635 166.498 90.5157L165.683 88.6894C164.476 89.2279 163.271 89.7413 162.068 90.2298L162.82 92.083ZM170.183 88.7953C171.373 88.215 172.563 87.6104 173.755 86.981L172.821 85.2126C171.648 85.832 170.477 86.4268 169.306 86.9976L170.183 88.7953ZM177.283 85.0459C178.454 84.3791 179.627 83.6881 180.799 82.9724L179.757 81.2653C178.602 81.9704 177.447 82.651 176.294 83.3076L177.283 85.0459ZM184.156 80.8562C185.275 80.1281 186.395 79.3772 187.514 78.6032L186.377 76.9582C185.272 77.7216 184.169 78.462 183.065 79.1797L184.156 80.8562ZM190.815 76.2533C191.874 75.4776 192.933 74.6809 193.992 73.8629L192.769 72.2801C191.724 73.0878 190.678 73.8743 189.633 74.6398L190.815 76.2533ZM197.168 71.3447C198.203 70.5032 199.237 69.6411 200.271 68.7581L198.972 67.2372C197.95 68.1099 196.928 68.9618 195.906 69.7931L197.168 71.3447ZM203.262 66.1441C204.259 65.2532 205.255 64.3426 206.251 63.4121L204.885 61.9508C203.9 62.8714 202.915 63.772 201.929 64.653L203.262 66.1441ZM209.184 60.6119C210.119 59.6997 211.054 58.7697 211.988 57.8217L210.564 56.4178C209.639 57.3565 208.713 58.2772 207.787 59.18L209.184 60.6119ZM214.79 54.9233C215.722 53.9391 216.655 52.9368 217.586 51.916L216.109 50.5678C215.186 51.5794 214.262 52.5725 213.338 53.5474L214.79 54.9233ZM220.208 48.9916C221.082 48.0005 221.954 46.9929 222.826 45.9688L221.303 44.6723C220.439 45.6879 219.573 46.6869 218.708 47.6694L220.208 48.9916ZM225.439 42.8465C226.283 41.8215 227.125 40.7808 227.967 39.7242L226.403 38.4778C225.568 39.5263 224.732 40.5588 223.895 41.5756L225.439 42.8465ZM230.408 36.6127C231.221 35.5606 232.034 34.4934 232.845 33.4112L231.244 32.2116C230.439 33.2862 229.633 34.3456 228.826 35.3899L230.408 36.6127ZM235.276 30.1187C236.047 29.0585 236.817 27.9844 237.587 26.8963L235.954 25.7415C235.19 26.8224 234.424 27.8892 233.658 28.9422L235.276 30.1187ZM239.855 23.6446C240.611 22.5471 241.365 21.4359 242.118 20.3109L240.457 19.198C239.708 20.316 238.958 21.4203 238.208 22.5108L239.855 23.6446ZM244.376 16.8946C245.092 15.797 245.806 14.6867 246.52 13.5638L244.832 12.4908C244.123 13.6073 243.412 14.7111 242.701 15.8022L244.376 16.8946ZM248.625 10.2115C249.326 9.08167 250.026 7.93948 250.725 6.78481L249.014 5.74916C248.319 6.89768 247.623 8.03368 246.926 9.15726L248.625 10.2115ZM252.819 3.2832C253.167 2.69333 253.516 2.10031 253.864 1.50413L252.136 0.495869C251.79 1.08903 251.444 1.67903 251.097 2.26587L252.819 3.2832Z" fill="#3B71FE"/>
</svg>
