<svg width="145" height="167" viewBox="0 0 145 167" fill="none" xmlns="http://www.w3.org/2000/svg">
<path fill-rule="evenodd" clip-rule="evenodd" d="M121.478 74.9075C128.11 64.0363 134.082 52.4617 143.948 44.1025C144.534 43.6029 144.608 42.7243 144.11 42.1333C143.608 41.5472 142.728 41.4709 142.137 41.9678C132.041 50.5231 125.873 62.3258 119.088 73.4504C118.684 74.1063 118.896 74.9699 119.556 75.3705C120.214 75.776 121.074 75.5634 121.478 74.9075Z" fill="#1A1A1A"/>
<path fill-rule="evenodd" clip-rule="evenodd" d="M104.855 66.6318C103.668 61.3646 103.459 56.2425 104.899 51.029C105.105 50.2845 104.667 49.5159 103.924 49.3064C103.179 49.1017 102.408 49.5392 102.204 50.2788C100.637 55.9477 100.839 61.51 102.128 67.2355C102.296 67.9899 103.043 68.4667 103.798 68.2966C104.55 68.1311 105.026 67.3813 104.855 66.6318Z" fill="#1A1A1A"/>
<path fill-rule="evenodd" clip-rule="evenodd" d="M64.7199 56.2063C60.2135 51.5036 57.7682 45.9543 57.4545 39.4317C57.4171 38.6625 56.7617 38.065 55.9898 38.1027C55.2206 38.1355 54.6242 38.7901 54.6615 39.5593C55.0104 46.7788 57.7121 52.9272 62.7014 58.1343C63.2343 58.6933 64.1229 58.71 64.6783 58.18C65.237 57.6455 65.2556 56.7604 64.7199 56.2063Z" fill="#1A1A1A"/>
<path fill-rule="evenodd" clip-rule="evenodd" d="M26.0167 106.267C26.5818 107.844 27.2885 109.373 28.1448 110.821C28.5257 111.466 29.403 112.72 30.3827 113.402C31.4241 114.132 32.5647 114.295 33.6048 113.619C34.9853 112.721 35.504 111.667 35.5649 110.658C35.6247 109.687 35.2269 108.672 34.4521 107.728C32.9707 105.925 30.0183 104.363 28.1537 103.782C27.6961 102.184 27.3907 100.545 27.2343 98.8885C26.0694 86.5512 35.7705 75.0416 50.7655 70.5327C56.0148 68.9555 63.8085 71.2382 71.6812 74.6299C83.94 79.9095 96.3185 88.081 100.014 90.3562C100.927 90.9159 101.528 91.1468 101.666 91.162C102.338 91.2471 102.71 90.927 102.926 90.6775C103.233 90.3134 103.342 89.9449 103.357 89.6055C103.375 89.1452 103.214 88.666 102.787 88.2388C102.55 88.0051 102.172 87.7614 101.752 87.5318C101.459 87.3756 101.112 87.2523 100.939 87.0753C99.8376 85.9367 98.8117 84.7386 97.771 83.5448C94.2663 79.5428 91.287 75.2642 88.4353 70.7757C79.3735 56.5149 69.4489 42.0526 65.9762 25.2444C65.8202 24.4905 65.0814 23.9995 64.3245 24.1554C63.5703 24.3064 63.0839 25.0438 63.2376 25.8028C66.7773 42.9462 76.8345 57.7236 86.0752 72.2681C88.5013 76.0855 91.0188 79.756 93.858 83.2384C87.5046 79.3833 78.5673 74.2942 70.0085 70.9189C62.3971 67.9164 55.0562 66.3269 49.9533 67.8598C33.5267 72.7989 23.1723 85.6326 24.4508 99.144C24.5882 100.59 24.8261 102.029 25.171 103.439C13.2018 103.212 3.36929 111.842 2.23477 123.832C2.16087 124.601 2.72663 125.282 3.49395 125.358C4.26405 125.429 4.94556 124.868 5.01946 124.099C6.04202 113.295 15.1277 105.619 26.0167 106.267ZM29.4596 107.32C29.788 108.032 30.1536 108.726 30.5524 109.408C30.7681 109.771 31.2026 110.434 31.7272 110.911C31.851 111.021 32.0683 111.153 32.1701 111.212C32.5274 110.973 32.7576 110.758 32.7733 110.484C32.7949 110.142 32.5629 109.827 32.2917 109.497C31.612 108.666 30.5208 107.894 29.4596 107.32Z" fill="#1A1A1A"/>
</svg>
