<svg width="610" height="133" viewBox="0 0 610 133" fill="none" xmlns="http://www.w3.org/2000/svg">
<path fill-rule="evenodd" clip-rule="evenodd" d="M0 2.25045C0 1.00759 1.00753 6.86092e-05 2.25038 6.86092e-05C3.49324 6.86092e-05 4.50076 1.00759 4.50076 2.25045C4.50076 3.4933 3.49324 4.50083 2.25038 4.50083C1.00753 4.50083 0 3.4933 0 2.25045Z" fill="#377DFF" fill-opacity="0.3"/>
<path fill-rule="evenodd" clip-rule="evenodd" d="M31.9425 2.25045C31.9425 1.00759 32.95 6.86092e-05 34.1929 6.86092e-05C35.4358 6.86092e-05 36.4433 1.00759 36.4433 2.25045C36.4433 3.4933 35.4358 4.50083 34.1929 4.50083C32.95 4.50083 31.9425 3.4933 31.9425 2.25045Z" fill="#377DFF" fill-opacity="0.3"/>
<path fill-rule="evenodd" clip-rule="evenodd" d="M63.8904 2.25045C63.8904 1.00759 64.8979 6.86092e-05 66.1408 6.86092e-05C67.3836 6.86092e-05 68.3912 1.00759 68.3912 2.25045C68.3912 3.4933 67.3836 4.50083 66.1408 4.50083C64.8979 4.50083 63.8904 3.4933 63.8904 2.25045Z" fill="#377DFF" fill-opacity="0.3"/>
<path fill-rule="evenodd" clip-rule="evenodd" d="M95.8329 2.25045C95.8329 1.00759 96.8404 6.86092e-05 98.0833 6.86092e-05C99.3261 6.86092e-05 100.334 1.00759 100.334 2.25045C100.334 3.4933 99.3261 4.50083 98.0833 4.50083C96.8404 4.50083 95.8329 3.4933 95.8329 2.25045Z" fill="#377DFF" fill-opacity="0.3"/>
<path fill-rule="evenodd" clip-rule="evenodd" d="M127.775 2.25045C127.775 1.00759 128.783 6.86092e-05 130.026 6.86092e-05C131.269 6.86092e-05 132.276 1.00759 132.276 2.25045C132.276 3.4933 131.269 4.50083 130.026 4.50083C128.783 4.50083 127.775 3.4933 127.775 2.25045Z" fill="#377DFF" fill-opacity="0.3"/>
<path fill-rule="evenodd" clip-rule="evenodd" d="M159.723 2.25045C159.723 1.00759 160.731 6.86092e-05 161.974 6.86092e-05C163.216 6.86092e-05 164.224 1.00759 164.224 2.25045C164.224 3.4933 163.216 4.50083 161.974 4.50083C160.731 4.50083 159.723 3.4933 159.723 2.25045Z" fill="#377DFF" fill-opacity="0.3"/>
<path fill-rule="evenodd" clip-rule="evenodd" d="M191.666 2.25045C191.666 1.00759 192.673 6.86092e-05 193.916 6.86092e-05C195.159 6.86092e-05 196.167 1.00759 196.167 2.25045C196.167 3.4933 195.159 4.50083 193.916 4.50083C192.673 4.50083 191.666 3.4933 191.666 2.25045Z" fill="#377DFF" fill-opacity="0.3"/>
<path fill-rule="evenodd" clip-rule="evenodd" d="M223.614 2.25045C223.614 1.00759 224.621 6.86092e-05 225.864 6.86092e-05C227.107 6.86092e-05 228.114 1.00759 228.114 2.25045C228.114 3.4933 227.107 4.50083 225.864 4.50083C224.621 4.50083 223.614 3.4933 223.614 2.25045Z" fill="#377DFF" fill-opacity="0.3"/>
<path fill-rule="evenodd" clip-rule="evenodd" d="M255.556 2.25045C255.556 1.00759 256.564 6.86092e-05 257.806 6.86092e-05C259.049 6.86092e-05 260.057 1.00759 260.057 2.25045C260.057 3.4933 259.049 4.50083 257.806 4.50083C256.564 4.50083 255.556 3.4933 255.556 2.25045Z" fill="#377DFF" fill-opacity="0.3"/>
<path fill-rule="evenodd" clip-rule="evenodd" d="M287.499 2.25045C287.499 1.00759 288.506 6.86092e-05 289.749 6.86092e-05C290.992 6.86092e-05 291.999 1.00759 291.999 2.25045C291.999 3.4933 290.992 4.50083 289.749 4.50083C288.506 4.50083 287.499 3.4933 287.499 2.25045Z" fill="#377DFF" fill-opacity="0.3"/>
<path fill-rule="evenodd" clip-rule="evenodd" d="M0 34.1953C0 32.9524 1.00753 31.9449 2.25038 31.9449C3.49324 31.9449 4.50076 32.9524 4.50076 34.1953C4.50076 35.4381 3.49324 36.4457 2.25038 36.4457C1.00753 36.4457 0 35.4381 0 34.1953Z" fill="#377DFF" fill-opacity="0.3"/>
<path fill-rule="evenodd" clip-rule="evenodd" d="M31.9425 34.1953C31.9425 32.9524 32.95 31.9449 34.1929 31.9449C35.4358 31.9449 36.4433 32.9524 36.4433 34.1953C36.4433 35.4381 35.4358 36.4457 34.1929 36.4457C32.95 36.4457 31.9425 35.4381 31.9425 34.1953Z" fill="#377DFF" fill-opacity="0.3"/>
<path fill-rule="evenodd" clip-rule="evenodd" d="M63.8904 34.1953C63.8904 32.9524 64.8979 31.9449 66.1408 31.9449C67.3836 31.9449 68.3912 32.9524 68.3912 34.1953C68.3912 35.4381 67.3836 36.4457 66.1408 36.4457C64.8979 36.4457 63.8904 35.4381 63.8904 34.1953Z" fill="#377DFF" fill-opacity="0.3"/>
<path fill-rule="evenodd" clip-rule="evenodd" d="M95.8329 34.1953C95.8329 32.9524 96.8404 31.9449 98.0833 31.9449C99.3261 31.9449 100.334 32.9524 100.334 34.1953C100.334 35.4381 99.3261 36.4457 98.0833 36.4457C96.8404 36.4457 95.8329 35.4381 95.8329 34.1953Z" fill="#377DFF" fill-opacity="0.3"/>
<path fill-rule="evenodd" clip-rule="evenodd" d="M127.775 34.1953C127.775 32.9524 128.783 31.9449 130.026 31.9449C131.269 31.9449 132.276 32.9524 132.276 34.1953C132.276 35.4381 131.269 36.4457 130.026 36.4457C128.783 36.4457 127.775 35.4381 127.775 34.1953Z" fill="#377DFF" fill-opacity="0.3"/>
<path fill-rule="evenodd" clip-rule="evenodd" d="M159.723 34.1953C159.723 32.9524 160.731 31.9449 161.974 31.9449C163.216 31.9449 164.224 32.9524 164.224 34.1953C164.224 35.4381 163.216 36.4457 161.974 36.4457C160.731 36.4457 159.723 35.4381 159.723 34.1953Z" fill="#377DFF" fill-opacity="0.3"/>
<path fill-rule="evenodd" clip-rule="evenodd" d="M191.666 34.1953C191.666 32.9524 192.673 31.9449 193.916 31.9449C195.159 31.9449 196.167 32.9524 196.167 34.1953C196.167 35.4381 195.159 36.4457 193.916 36.4457C192.673 36.4457 191.666 35.4381 191.666 34.1953Z" fill="#377DFF" fill-opacity="0.3"/>
<path fill-rule="evenodd" clip-rule="evenodd" d="M223.614 34.1953C223.614 32.9524 224.621 31.9449 225.864 31.9449C227.107 31.9449 228.114 32.9524 228.114 34.1953C228.114 35.4381 227.107 36.4457 225.864 36.4457C224.621 36.4457 223.614 35.4381 223.614 34.1953Z" fill="#377DFF" fill-opacity="0.3"/>
<path fill-rule="evenodd" clip-rule="evenodd" d="M255.556 34.1953C255.556 32.9524 256.564 31.9449 257.806 31.9449C259.049 31.9449 260.057 32.9524 260.057 34.1953C260.057 35.4381 259.049 36.4457 257.806 36.4457C256.564 36.4457 255.556 35.4381 255.556 34.1953Z" fill="#377DFF" fill-opacity="0.3"/>
<path fill-rule="evenodd" clip-rule="evenodd" d="M287.499 34.1953C287.499 32.9524 288.506 31.9449 289.749 31.9449C290.992 31.9449 291.999 32.9524 291.999 34.1953C291.999 35.4381 290.992 36.4457 289.749 36.4457C288.506 36.4457 287.499 35.4381 287.499 34.1953Z" fill="#377DFF" fill-opacity="0.3"/>
<path fill-rule="evenodd" clip-rule="evenodd" d="M0 66.1395C0 64.8966 1.00753 63.8891 2.25038 63.8891C3.49324 63.8891 4.50076 64.8966 4.50076 66.1395C4.50076 67.3823 3.49324 68.3899 2.25038 68.3899C1.00753 68.3899 0 67.3823 0 66.1395Z" fill="#377DFF" fill-opacity="0.3"/>
<path fill-rule="evenodd" clip-rule="evenodd" d="M31.9425 66.1395C31.9425 64.8966 32.95 63.8891 34.1929 63.8891C35.4358 63.8891 36.4433 64.8966 36.4433 66.1395C36.4433 67.3823 35.4358 68.3899 34.1929 68.3899C32.95 68.3899 31.9425 67.3823 31.9425 66.1395Z" fill="#377DFF" fill-opacity="0.3"/>
<path fill-rule="evenodd" clip-rule="evenodd" d="M63.8904 66.1395C63.8904 64.8966 64.8979 63.8891 66.1408 63.8891C67.3836 63.8891 68.3912 64.8966 68.3912 66.1395C68.3912 67.3823 67.3836 68.3899 66.1408 68.3899C64.8979 68.3899 63.8904 67.3823 63.8904 66.1395Z" fill="#377DFF" fill-opacity="0.3"/>
<path fill-rule="evenodd" clip-rule="evenodd" d="M95.8329 66.1395C95.8329 64.8966 96.8404 63.8891 98.0833 63.8891C99.3261 63.8891 100.334 64.8966 100.334 66.1395C100.334 67.3823 99.3261 68.3899 98.0833 68.3899C96.8404 68.3899 95.8329 67.3823 95.8329 66.1395Z" fill="#377DFF" fill-opacity="0.3"/>
<path fill-rule="evenodd" clip-rule="evenodd" d="M127.775 66.1395C127.775 64.8966 128.783 63.8891 130.026 63.8891C131.269 63.8891 132.276 64.8966 132.276 66.1395C132.276 67.3823 131.269 68.3899 130.026 68.3899C128.783 68.3899 127.775 67.3823 127.775 66.1395Z" fill="#377DFF" fill-opacity="0.3"/>
<path fill-rule="evenodd" clip-rule="evenodd" d="M159.723 66.1395C159.723 64.8966 160.731 63.8891 161.974 63.8891C163.216 63.8891 164.224 64.8966 164.224 66.1395C164.224 67.3823 163.216 68.3899 161.974 68.3899C160.731 68.3899 159.723 67.3823 159.723 66.1395Z" fill="#377DFF" fill-opacity="0.3"/>
<path fill-rule="evenodd" clip-rule="evenodd" d="M191.666 66.1395C191.666 64.8966 192.673 63.8891 193.916 63.8891C195.159 63.8891 196.167 64.8966 196.167 66.1395C196.167 67.3823 195.159 68.3899 193.916 68.3899C192.673 68.3899 191.666 67.3823 191.666 66.1395Z" fill="#377DFF" fill-opacity="0.3"/>
<path fill-rule="evenodd" clip-rule="evenodd" d="M223.614 66.1395C223.614 64.8966 224.621 63.8891 225.864 63.8891C227.107 63.8891 228.114 64.8966 228.114 66.1395C228.114 67.3823 227.107 68.3899 225.864 68.3899C224.621 68.3899 223.614 67.3823 223.614 66.1395Z" fill="#377DFF" fill-opacity="0.3"/>
<path fill-rule="evenodd" clip-rule="evenodd" d="M255.556 66.1395C255.556 64.8966 256.564 63.8891 257.806 63.8891C259.049 63.8891 260.057 64.8966 260.057 66.1395C260.057 67.3823 259.049 68.3899 257.806 68.3899C256.564 68.3899 255.556 67.3823 255.556 66.1395Z" fill="#377DFF" fill-opacity="0.3"/>
<path fill-rule="evenodd" clip-rule="evenodd" d="M287.499 66.1395C287.499 64.8966 288.506 63.8891 289.749 63.8891C290.992 63.8891 291.999 64.8966 291.999 66.1395C291.999 67.3823 290.992 68.3899 289.749 68.3899C288.506 68.3899 287.499 67.3823 287.499 66.1395Z" fill="#377DFF" fill-opacity="0.3"/>
<path fill-rule="evenodd" clip-rule="evenodd" d="M0 98.0835C0 96.8406 1.00753 95.8331 2.25038 95.8331C3.49324 95.8331 4.50076 96.8406 4.50076 98.0835C4.50076 99.3263 3.49324 100.334 2.25038 100.334C1.00753 100.334 0 99.3263 0 98.0835Z" fill="#377DFF" fill-opacity="0.3"/>
<path fill-rule="evenodd" clip-rule="evenodd" d="M31.9425 98.0835C31.9425 96.8406 32.95 95.8331 34.1929 95.8331C35.4358 95.8331 36.4433 96.8406 36.4433 98.0835C36.4433 99.3263 35.4358 100.334 34.1929 100.334C32.95 100.334 31.9425 99.3263 31.9425 98.0835Z" fill="#377DFF" fill-opacity="0.3"/>
<path fill-rule="evenodd" clip-rule="evenodd" d="M63.8904 98.0835C63.8904 96.8406 64.8979 95.8331 66.1408 95.8331C67.3836 95.8331 68.3912 96.8406 68.3912 98.0835C68.3912 99.3263 67.3836 100.334 66.1408 100.334C64.8979 100.334 63.8904 99.3263 63.8904 98.0835Z" fill="#377DFF" fill-opacity="0.3"/>
<path fill-rule="evenodd" clip-rule="evenodd" d="M95.8329 98.0835C95.8329 96.8406 96.8404 95.8331 98.0833 95.8331C99.3261 95.8331 100.334 96.8406 100.334 98.0835C100.334 99.3263 99.3261 100.334 98.0833 100.334C96.8404 100.334 95.8329 99.3263 95.8329 98.0835Z" fill="#377DFF" fill-opacity="0.3"/>
<path fill-rule="evenodd" clip-rule="evenodd" d="M127.775 98.0835C127.775 96.8406 128.783 95.8331 130.026 95.8331C131.269 95.8331 132.276 96.8406 132.276 98.0835C132.276 99.3263 131.269 100.334 130.026 100.334C128.783 100.334 127.775 99.3263 127.775 98.0835Z" fill="#377DFF" fill-opacity="0.3"/>
<path fill-rule="evenodd" clip-rule="evenodd" d="M159.723 98.0835C159.723 96.8406 160.731 95.8331 161.974 95.8331C163.216 95.8331 164.224 96.8406 164.224 98.0835C164.224 99.3263 163.216 100.334 161.974 100.334C160.731 100.334 159.723 99.3263 159.723 98.0835Z" fill="#377DFF" fill-opacity="0.3"/>
<path fill-rule="evenodd" clip-rule="evenodd" d="M191.666 98.0835C191.666 96.8406 192.673 95.8331 193.916 95.8331C195.159 95.8331 196.167 96.8406 196.167 98.0835C196.167 99.3263 195.159 100.334 193.916 100.334C192.673 100.334 191.666 99.3263 191.666 98.0835Z" fill="#377DFF" fill-opacity="0.3"/>
<path fill-rule="evenodd" clip-rule="evenodd" d="M223.614 98.0835C223.614 96.8406 224.621 95.8331 225.864 95.8331C227.107 95.8331 228.114 96.8406 228.114 98.0835C228.114 99.3263 227.107 100.334 225.864 100.334C224.621 100.334 223.614 99.3263 223.614 98.0835Z" fill="#377DFF" fill-opacity="0.3"/>
<path fill-rule="evenodd" clip-rule="evenodd" d="M255.556 98.0835C255.556 96.8406 256.564 95.8331 257.806 95.8331C259.049 95.8331 260.057 96.8406 260.057 98.0835C260.057 99.3263 259.049 100.334 257.806 100.334C256.564 100.334 255.556 99.3263 255.556 98.0835Z" fill="#377DFF" fill-opacity="0.3"/>
<path fill-rule="evenodd" clip-rule="evenodd" d="M287.499 98.0835C287.499 96.8406 288.506 95.8331 289.749 95.8331C290.992 95.8331 291.999 96.8406 291.999 98.0835C291.999 99.3263 290.992 100.334 289.749 100.334C288.506 100.334 287.499 99.3263 287.499 98.0835Z" fill="#377DFF" fill-opacity="0.3"/>
<path fill-rule="evenodd" clip-rule="evenodd" d="M0 130.028C0 128.785 1.00753 127.778 2.25038 127.778C3.49324 127.778 4.50076 128.785 4.50076 130.028C4.50076 131.271 3.49324 132.278 2.25038 132.278C1.00753 132.278 0 131.271 0 130.028Z" fill="#377DFF" fill-opacity="0.3"/>
<path fill-rule="evenodd" clip-rule="evenodd" d="M31.9425 130.028C31.9425 128.785 32.95 127.778 34.1929 127.778C35.4358 127.778 36.4433 128.785 36.4433 130.028C36.4433 131.271 35.4358 132.278 34.1929 132.278C32.95 132.278 31.9425 131.271 31.9425 130.028Z" fill="#377DFF" fill-opacity="0.3"/>
<path fill-rule="evenodd" clip-rule="evenodd" d="M63.8904 130.028C63.8904 128.785 64.8979 127.778 66.1408 127.778C67.3836 127.778 68.3912 128.785 68.3912 130.028C68.3912 131.271 67.3836 132.278 66.1408 132.278C64.8979 132.278 63.8904 131.271 63.8904 130.028Z" fill="#377DFF" fill-opacity="0.3"/>
<path fill-rule="evenodd" clip-rule="evenodd" d="M95.8329 130.028C95.8329 128.785 96.8404 127.778 98.0833 127.778C99.3261 127.778 100.334 128.785 100.334 130.028C100.334 131.271 99.3261 132.278 98.0833 132.278C96.8404 132.278 95.8329 131.271 95.8329 130.028Z" fill="#377DFF" fill-opacity="0.3"/>
<path fill-rule="evenodd" clip-rule="evenodd" d="M127.775 130.028C127.775 128.785 128.783 127.778 130.026 127.778C131.269 127.778 132.276 128.785 132.276 130.028C132.276 131.271 131.269 132.278 130.026 132.278C128.783 132.278 127.775 131.271 127.775 130.028Z" fill="#377DFF" fill-opacity="0.3"/>
<path fill-rule="evenodd" clip-rule="evenodd" d="M159.723 130.028C159.723 128.785 160.731 127.778 161.974 127.778C163.216 127.778 164.224 128.785 164.224 130.028C164.224 131.271 163.216 132.278 161.974 132.278C160.731 132.278 159.723 131.271 159.723 130.028Z" fill="#377DFF" fill-opacity="0.3"/>
<path fill-rule="evenodd" clip-rule="evenodd" d="M191.666 130.028C191.666 128.785 192.673 127.778 193.916 127.778C195.159 127.778 196.167 128.785 196.167 130.028C196.167 131.271 195.159 132.278 193.916 132.278C192.673 132.278 191.666 131.271 191.666 130.028Z" fill="#377DFF" fill-opacity="0.3"/>
<path fill-rule="evenodd" clip-rule="evenodd" d="M223.614 130.028C223.614 128.785 224.621 127.778 225.864 127.778C227.107 127.778 228.114 128.785 228.114 130.028C228.114 131.271 227.107 132.278 225.864 132.278C224.621 132.278 223.614 131.271 223.614 130.028Z" fill="#377DFF" fill-opacity="0.3"/>
<path fill-rule="evenodd" clip-rule="evenodd" d="M255.556 130.028C255.556 128.785 256.564 127.778 257.806 127.778C259.049 127.778 260.057 128.785 260.057 130.028C260.057 131.271 259.049 132.278 257.806 132.278C256.564 132.278 255.556 131.271 255.556 130.028Z" fill="#377DFF" fill-opacity="0.3"/>
<path fill-rule="evenodd" clip-rule="evenodd" d="M287.499 130.028C287.499 128.785 288.506 127.778 289.749 127.778C290.992 127.778 291.999 128.785 291.999 130.028C291.999 131.271 290.992 132.278 289.749 132.278C288.506 132.278 287.499 131.271 287.499 130.028Z" fill="#377DFF" fill-opacity="0.3"/>
<path fill-rule="evenodd" clip-rule="evenodd" d="M318 2.25045C318 1.00759 319.008 6.86092e-05 320.25 6.86092e-05C321.493 6.86092e-05 322.501 1.00759 322.501 2.25045C322.501 3.4933 321.493 4.50083 320.25 4.50083C319.008 4.50083 318 3.4933 318 2.25045Z" fill="#377DFF" fill-opacity="0.3"/>
<path fill-rule="evenodd" clip-rule="evenodd" d="M349.942 2.25045C349.942 1.00759 350.95 6.86092e-05 352.193 6.86092e-05C353.436 6.86092e-05 354.443 1.00759 354.443 2.25045C354.443 3.4933 353.436 4.50083 352.193 4.50083C350.95 4.50083 349.942 3.4933 349.942 2.25045Z" fill="#377DFF" fill-opacity="0.3"/>
<path fill-rule="evenodd" clip-rule="evenodd" d="M381.89 2.25045C381.89 1.00759 382.898 6.86092e-05 384.141 6.86092e-05C385.384 6.86092e-05 386.391 1.00759 386.391 2.25045C386.391 3.4933 385.384 4.50083 384.141 4.50083C382.898 4.50083 381.89 3.4933 381.89 2.25045Z" fill="#377DFF" fill-opacity="0.3"/>
<path fill-rule="evenodd" clip-rule="evenodd" d="M413.833 2.25045C413.833 1.00759 414.84 6.86092e-05 416.083 6.86092e-05C417.326 6.86092e-05 418.334 1.00759 418.334 2.25045C418.334 3.4933 417.326 4.50083 416.083 4.50083C414.84 4.50083 413.833 3.4933 413.833 2.25045Z" fill="#377DFF" fill-opacity="0.3"/>
<path fill-rule="evenodd" clip-rule="evenodd" d="M445.775 2.25045C445.775 1.00759 446.783 6.86092e-05 448.026 6.86092e-05C449.269 6.86092e-05 450.276 1.00759 450.276 2.25045C450.276 3.4933 449.269 4.50083 448.026 4.50083C446.783 4.50083 445.775 3.4933 445.775 2.25045Z" fill="#377DFF" fill-opacity="0.3"/>
<path fill-rule="evenodd" clip-rule="evenodd" d="M477.723 2.25045C477.723 1.00759 478.731 6.86092e-05 479.974 6.86092e-05C481.216 6.86092e-05 482.224 1.00759 482.224 2.25045C482.224 3.4933 481.216 4.50083 479.974 4.50083C478.731 4.50083 477.723 3.4933 477.723 2.25045Z" fill="#377DFF" fill-opacity="0.3"/>
<path fill-rule="evenodd" clip-rule="evenodd" d="M509.666 2.25045C509.666 1.00759 510.673 6.86092e-05 511.916 6.86092e-05C513.159 6.86092e-05 514.167 1.00759 514.167 2.25045C514.167 3.4933 513.159 4.50083 511.916 4.50083C510.673 4.50083 509.666 3.4933 509.666 2.25045Z" fill="#377DFF" fill-opacity="0.3"/>
<path fill-rule="evenodd" clip-rule="evenodd" d="M541.614 2.25045C541.614 1.00759 542.621 6.86092e-05 543.864 6.86092e-05C545.107 6.86092e-05 546.114 1.00759 546.114 2.25045C546.114 3.4933 545.107 4.50083 543.864 4.50083C542.621 4.50083 541.614 3.4933 541.614 2.25045Z" fill="#377DFF" fill-opacity="0.3"/>
<path fill-rule="evenodd" clip-rule="evenodd" d="M573.556 2.25045C573.556 1.00759 574.564 6.86092e-05 575.806 6.86092e-05C577.049 6.86092e-05 578.057 1.00759 578.057 2.25045C578.057 3.4933 577.049 4.50083 575.806 4.50083C574.564 4.50083 573.556 3.4933 573.556 2.25045Z" fill="#377DFF" fill-opacity="0.3"/>
<path fill-rule="evenodd" clip-rule="evenodd" d="M605.499 2.25045C605.499 1.00759 606.506 6.86092e-05 607.749 6.86092e-05C608.992 6.86092e-05 609.999 1.00759 609.999 2.25045C609.999 3.4933 608.992 4.50083 607.749 4.50083C606.506 4.50083 605.499 3.4933 605.499 2.25045Z" fill="#377DFF" fill-opacity="0.3"/>
<path fill-rule="evenodd" clip-rule="evenodd" d="M318 34.1953C318 32.9524 319.008 31.9449 320.25 31.9449C321.493 31.9449 322.501 32.9524 322.501 34.1953C322.501 35.4381 321.493 36.4457 320.25 36.4457C319.008 36.4457 318 35.4381 318 34.1953Z" fill="#377DFF" fill-opacity="0.3"/>
<path fill-rule="evenodd" clip-rule="evenodd" d="M349.942 34.1953C349.942 32.9524 350.95 31.9449 352.193 31.9449C353.436 31.9449 354.443 32.9524 354.443 34.1953C354.443 35.4381 353.436 36.4457 352.193 36.4457C350.95 36.4457 349.942 35.4381 349.942 34.1953Z" fill="#377DFF" fill-opacity="0.3"/>
<path fill-rule="evenodd" clip-rule="evenodd" d="M381.89 34.1953C381.89 32.9524 382.898 31.9449 384.141 31.9449C385.384 31.9449 386.391 32.9524 386.391 34.1953C386.391 35.4381 385.384 36.4457 384.141 36.4457C382.898 36.4457 381.89 35.4381 381.89 34.1953Z" fill="#377DFF" fill-opacity="0.3"/>
<path fill-rule="evenodd" clip-rule="evenodd" d="M413.833 34.1953C413.833 32.9524 414.84 31.9449 416.083 31.9449C417.326 31.9449 418.334 32.9524 418.334 34.1953C418.334 35.4381 417.326 36.4457 416.083 36.4457C414.84 36.4457 413.833 35.4381 413.833 34.1953Z" fill="#377DFF" fill-opacity="0.3"/>
<path fill-rule="evenodd" clip-rule="evenodd" d="M445.775 34.1953C445.775 32.9524 446.783 31.9449 448.026 31.9449C449.269 31.9449 450.276 32.9524 450.276 34.1953C450.276 35.4381 449.269 36.4457 448.026 36.4457C446.783 36.4457 445.775 35.4381 445.775 34.1953Z" fill="#377DFF" fill-opacity="0.3"/>
<path fill-rule="evenodd" clip-rule="evenodd" d="M477.723 34.1953C477.723 32.9524 478.731 31.9449 479.974 31.9449C481.216 31.9449 482.224 32.9524 482.224 34.1953C482.224 35.4381 481.216 36.4457 479.974 36.4457C478.731 36.4457 477.723 35.4381 477.723 34.1953Z" fill="#377DFF" fill-opacity="0.3"/>
<path fill-rule="evenodd" clip-rule="evenodd" d="M509.666 34.1953C509.666 32.9524 510.673 31.9449 511.916 31.9449C513.159 31.9449 514.167 32.9524 514.167 34.1953C514.167 35.4381 513.159 36.4457 511.916 36.4457C510.673 36.4457 509.666 35.4381 509.666 34.1953Z" fill="#377DFF" fill-opacity="0.3"/>
<path fill-rule="evenodd" clip-rule="evenodd" d="M541.614 34.1953C541.614 32.9524 542.621 31.9449 543.864 31.9449C545.107 31.9449 546.114 32.9524 546.114 34.1953C546.114 35.4381 545.107 36.4457 543.864 36.4457C542.621 36.4457 541.614 35.4381 541.614 34.1953Z" fill="#377DFF" fill-opacity="0.3"/>
<path fill-rule="evenodd" clip-rule="evenodd" d="M573.556 34.1953C573.556 32.9524 574.564 31.9449 575.806 31.9449C577.049 31.9449 578.057 32.9524 578.057 34.1953C578.057 35.4381 577.049 36.4457 575.806 36.4457C574.564 36.4457 573.556 35.4381 573.556 34.1953Z" fill="#377DFF" fill-opacity="0.3"/>
<path fill-rule="evenodd" clip-rule="evenodd" d="M605.499 34.1953C605.499 32.9524 606.506 31.9449 607.749 31.9449C608.992 31.9449 609.999 32.9524 609.999 34.1953C609.999 35.4381 608.992 36.4457 607.749 36.4457C606.506 36.4457 605.499 35.4381 605.499 34.1953Z" fill="#377DFF" fill-opacity="0.3"/>
<path fill-rule="evenodd" clip-rule="evenodd" d="M318 66.1395C318 64.8966 319.008 63.8891 320.25 63.8891C321.493 63.8891 322.501 64.8966 322.501 66.1395C322.501 67.3823 321.493 68.3899 320.25 68.3899C319.008 68.3899 318 67.3823 318 66.1395Z" fill="#377DFF" fill-opacity="0.3"/>
<path fill-rule="evenodd" clip-rule="evenodd" d="M349.942 66.1395C349.942 64.8966 350.95 63.8891 352.193 63.8891C353.436 63.8891 354.443 64.8966 354.443 66.1395C354.443 67.3823 353.436 68.3899 352.193 68.3899C350.95 68.3899 349.942 67.3823 349.942 66.1395Z" fill="#377DFF" fill-opacity="0.3"/>
<path fill-rule="evenodd" clip-rule="evenodd" d="M381.89 66.1395C381.89 64.8966 382.898 63.8891 384.141 63.8891C385.384 63.8891 386.391 64.8966 386.391 66.1395C386.391 67.3823 385.384 68.3899 384.141 68.3899C382.898 68.3899 381.89 67.3823 381.89 66.1395Z" fill="#377DFF" fill-opacity="0.3"/>
<path fill-rule="evenodd" clip-rule="evenodd" d="M413.833 66.1395C413.833 64.8966 414.84 63.8891 416.083 63.8891C417.326 63.8891 418.334 64.8966 418.334 66.1395C418.334 67.3823 417.326 68.3899 416.083 68.3899C414.84 68.3899 413.833 67.3823 413.833 66.1395Z" fill="#377DFF" fill-opacity="0.3"/>
<path fill-rule="evenodd" clip-rule="evenodd" d="M445.775 66.1395C445.775 64.8966 446.783 63.8891 448.026 63.8891C449.269 63.8891 450.276 64.8966 450.276 66.1395C450.276 67.3823 449.269 68.3899 448.026 68.3899C446.783 68.3899 445.775 67.3823 445.775 66.1395Z" fill="#377DFF" fill-opacity="0.3"/>
<path fill-rule="evenodd" clip-rule="evenodd" d="M477.723 66.1395C477.723 64.8966 478.731 63.8891 479.974 63.8891C481.216 63.8891 482.224 64.8966 482.224 66.1395C482.224 67.3823 481.216 68.3899 479.974 68.3899C478.731 68.3899 477.723 67.3823 477.723 66.1395Z" fill="#377DFF" fill-opacity="0.3"/>
<path fill-rule="evenodd" clip-rule="evenodd" d="M509.666 66.1395C509.666 64.8966 510.673 63.8891 511.916 63.8891C513.159 63.8891 514.167 64.8966 514.167 66.1395C514.167 67.3823 513.159 68.3899 511.916 68.3899C510.673 68.3899 509.666 67.3823 509.666 66.1395Z" fill="#377DFF" fill-opacity="0.3"/>
<path fill-rule="evenodd" clip-rule="evenodd" d="M541.614 66.1395C541.614 64.8966 542.621 63.8891 543.864 63.8891C545.107 63.8891 546.114 64.8966 546.114 66.1395C546.114 67.3823 545.107 68.3899 543.864 68.3899C542.621 68.3899 541.614 67.3823 541.614 66.1395Z" fill="#377DFF" fill-opacity="0.3"/>
<path fill-rule="evenodd" clip-rule="evenodd" d="M573.556 66.1395C573.556 64.8966 574.564 63.8891 575.806 63.8891C577.049 63.8891 578.057 64.8966 578.057 66.1395C578.057 67.3823 577.049 68.3899 575.806 68.3899C574.564 68.3899 573.556 67.3823 573.556 66.1395Z" fill="#377DFF" fill-opacity="0.3"/>
<path fill-rule="evenodd" clip-rule="evenodd" d="M605.499 66.1395C605.499 64.8966 606.506 63.8891 607.749 63.8891C608.992 63.8891 609.999 64.8966 609.999 66.1395C609.999 67.3823 608.992 68.3899 607.749 68.3899C606.506 68.3899 605.499 67.3823 605.499 66.1395Z" fill="#377DFF" fill-opacity="0.3"/>
<path fill-rule="evenodd" clip-rule="evenodd" d="M318 98.0835C318 96.8406 319.008 95.8331 320.25 95.8331C321.493 95.8331 322.501 96.8406 322.501 98.0835C322.501 99.3263 321.493 100.334 320.25 100.334C319.008 100.334 318 99.3263 318 98.0835Z" fill="#377DFF" fill-opacity="0.3"/>
<path fill-rule="evenodd" clip-rule="evenodd" d="M349.942 98.0835C349.942 96.8406 350.95 95.8331 352.193 95.8331C353.436 95.8331 354.443 96.8406 354.443 98.0835C354.443 99.3263 353.436 100.334 352.193 100.334C350.95 100.334 349.942 99.3263 349.942 98.0835Z" fill="#377DFF" fill-opacity="0.3"/>
<path fill-rule="evenodd" clip-rule="evenodd" d="M381.89 98.0835C381.89 96.8406 382.898 95.8331 384.141 95.8331C385.384 95.8331 386.391 96.8406 386.391 98.0835C386.391 99.3263 385.384 100.334 384.141 100.334C382.898 100.334 381.89 99.3263 381.89 98.0835Z" fill="#377DFF" fill-opacity="0.3"/>
<path fill-rule="evenodd" clip-rule="evenodd" d="M413.833 98.0835C413.833 96.8406 414.84 95.8331 416.083 95.8331C417.326 95.8331 418.334 96.8406 418.334 98.0835C418.334 99.3263 417.326 100.334 416.083 100.334C414.84 100.334 413.833 99.3263 413.833 98.0835Z" fill="#377DFF" fill-opacity="0.3"/>
<path fill-rule="evenodd" clip-rule="evenodd" d="M445.775 98.0835C445.775 96.8406 446.783 95.8331 448.026 95.8331C449.269 95.8331 450.276 96.8406 450.276 98.0835C450.276 99.3263 449.269 100.334 448.026 100.334C446.783 100.334 445.775 99.3263 445.775 98.0835Z" fill="#377DFF" fill-opacity="0.3"/>
<path fill-rule="evenodd" clip-rule="evenodd" d="M477.723 98.0835C477.723 96.8406 478.731 95.8331 479.974 95.8331C481.216 95.8331 482.224 96.8406 482.224 98.0835C482.224 99.3263 481.216 100.334 479.974 100.334C478.731 100.334 477.723 99.3263 477.723 98.0835Z" fill="#377DFF" fill-opacity="0.3"/>
<path fill-rule="evenodd" clip-rule="evenodd" d="M509.666 98.0835C509.666 96.8406 510.673 95.8331 511.916 95.8331C513.159 95.8331 514.167 96.8406 514.167 98.0835C514.167 99.3263 513.159 100.334 511.916 100.334C510.673 100.334 509.666 99.3263 509.666 98.0835Z" fill="#377DFF" fill-opacity="0.3"/>
<path fill-rule="evenodd" clip-rule="evenodd" d="M541.614 98.0835C541.614 96.8406 542.621 95.8331 543.864 95.8331C545.107 95.8331 546.114 96.8406 546.114 98.0835C546.114 99.3263 545.107 100.334 543.864 100.334C542.621 100.334 541.614 99.3263 541.614 98.0835Z" fill="#377DFF" fill-opacity="0.3"/>
<path fill-rule="evenodd" clip-rule="evenodd" d="M573.556 98.0835C573.556 96.8406 574.564 95.8331 575.806 95.8331C577.049 95.8331 578.057 96.8406 578.057 98.0835C578.057 99.3263 577.049 100.334 575.806 100.334C574.564 100.334 573.556 99.3263 573.556 98.0835Z" fill="#377DFF" fill-opacity="0.3"/>
<path fill-rule="evenodd" clip-rule="evenodd" d="M605.499 98.0835C605.499 96.8406 606.506 95.8331 607.749 95.8331C608.992 95.8331 609.999 96.8406 609.999 98.0835C609.999 99.3263 608.992 100.334 607.749 100.334C606.506 100.334 605.499 99.3263 605.499 98.0835Z" fill="#377DFF" fill-opacity="0.3"/>
<path fill-rule="evenodd" clip-rule="evenodd" d="M318 130.028C318 128.785 319.008 127.778 320.25 127.778C321.493 127.778 322.501 128.785 322.501 130.028C322.501 131.271 321.493 132.278 320.25 132.278C319.008 132.278 318 131.271 318 130.028Z" fill="#377DFF" fill-opacity="0.3"/>
<path fill-rule="evenodd" clip-rule="evenodd" d="M349.942 130.028C349.942 128.785 350.95 127.778 352.193 127.778C353.436 127.778 354.443 128.785 354.443 130.028C354.443 131.271 353.436 132.278 352.193 132.278C350.95 132.278 349.942 131.271 349.942 130.028Z" fill="#377DFF" fill-opacity="0.3"/>
<path fill-rule="evenodd" clip-rule="evenodd" d="M381.89 130.028C381.89 128.785 382.898 127.778 384.141 127.778C385.384 127.778 386.391 128.785 386.391 130.028C386.391 131.271 385.384 132.278 384.141 132.278C382.898 132.278 381.89 131.271 381.89 130.028Z" fill="#377DFF" fill-opacity="0.3"/>
<path fill-rule="evenodd" clip-rule="evenodd" d="M413.833 130.028C413.833 128.785 414.84 127.778 416.083 127.778C417.326 127.778 418.334 128.785 418.334 130.028C418.334 131.271 417.326 132.278 416.083 132.278C414.84 132.278 413.833 131.271 413.833 130.028Z" fill="#377DFF" fill-opacity="0.3"/>
<path fill-rule="evenodd" clip-rule="evenodd" d="M445.775 130.028C445.775 128.785 446.783 127.778 448.026 127.778C449.269 127.778 450.276 128.785 450.276 130.028C450.276 131.271 449.269 132.278 448.026 132.278C446.783 132.278 445.775 131.271 445.775 130.028Z" fill="#377DFF" fill-opacity="0.3"/>
<path fill-rule="evenodd" clip-rule="evenodd" d="M477.723 130.028C477.723 128.785 478.731 127.778 479.974 127.778C481.216 127.778 482.224 128.785 482.224 130.028C482.224 131.271 481.216 132.278 479.974 132.278C478.731 132.278 477.723 131.271 477.723 130.028Z" fill="#377DFF" fill-opacity="0.3"/>
<path fill-rule="evenodd" clip-rule="evenodd" d="M509.666 130.028C509.666 128.785 510.673 127.778 511.916 127.778C513.159 127.778 514.167 128.785 514.167 130.028C514.167 131.271 513.159 132.278 511.916 132.278C510.673 132.278 509.666 131.271 509.666 130.028Z" fill="#377DFF" fill-opacity="0.3"/>
<path fill-rule="evenodd" clip-rule="evenodd" d="M541.614 130.028C541.614 128.785 542.621 127.778 543.864 127.778C545.107 127.778 546.114 128.785 546.114 130.028C546.114 131.271 545.107 132.278 543.864 132.278C542.621 132.278 541.614 131.271 541.614 130.028Z" fill="#377DFF" fill-opacity="0.3"/>
<path fill-rule="evenodd" clip-rule="evenodd" d="M573.556 130.028C573.556 128.785 574.564 127.778 575.806 127.778C577.049 127.778 578.057 128.785 578.057 130.028C578.057 131.271 577.049 132.278 575.806 132.278C574.564 132.278 573.556 131.271 573.556 130.028Z" fill="#377DFF" fill-opacity="0.3"/>
<path fill-rule="evenodd" clip-rule="evenodd" d="M605.499 130.028C605.499 128.785 606.506 127.778 607.749 127.778C608.992 127.778 609.999 128.785 609.999 130.028C609.999 131.271 608.992 132.278 607.749 132.278C606.506 132.278 605.499 131.271 605.499 130.028Z" fill="#377DFF" fill-opacity="0.3"/>
</svg>
