<svg width="143" height="86" viewBox="0 0 143 86" fill="none" xmlns="http://www.w3.org/2000/svg">
<path fill-rule="evenodd" clip-rule="evenodd" d="M102.809 80.914C115.539 81.2218 128.549 80.6062 140.722 84.9714C141.447 85.2288 142.245 84.8539 142.508 84.1264C142.764 83.3988 142.39 82.5986 141.665 82.3355C129.208 77.8696 115.902 78.4292 102.876 78.1158C102.105 78.0934 101.464 78.709 101.447 79.4813C101.425 80.2537 102.038 80.8916 102.809 80.914Z" fill="#1A1A1A"/>
<path fill-rule="evenodd" clip-rule="evenodd" d="M101.664 62.3805C105.632 58.7193 109.963 55.9765 115.198 54.6172C115.946 54.4235 116.393 53.6596 116.203 52.9119C116.008 52.1643 115.243 51.7149 114.501 51.9085C108.808 53.386 104.092 56.342 99.7776 60.3205C99.2083 60.8432 99.1692 61.7291 99.6939 62.2977C100.213 62.8657 101.1 62.9032 101.664 62.3805Z" fill="#1A1A1A"/>
<path fill-rule="evenodd" clip-rule="evenodd" d="M90.6253 22.4095C92.4447 16.1556 96.0279 11.2632 101.52 7.7302C102.167 7.31327 102.357 6.44696 101.938 5.79722C101.525 5.14747 100.66 4.9583 100.013 5.37523C93.9349 9.28711 89.9611 14.7011 87.9463 21.6255C87.7286 22.3664 88.1584 23.1444 88.8951 23.3604C89.6374 23.577 90.4132 23.1505 90.6253 22.4095Z" fill="#1A1A1A"/>
<path fill-rule="evenodd" clip-rule="evenodd" d="M27.9199 13.9219C26.8371 15.1996 25.866 16.5763 25.04 18.042C24.6716 18.6945 24.0242 20.0813 23.9237 21.2705C23.8121 22.5375 24.2418 23.6065 25.3469 24.1695C26.8147 24.916 27.9868 24.8383 28.891 24.3866C29.7617 23.9529 30.4425 23.1006 30.8723 21.9578C31.6927 19.7735 31.5699 16.4353 31.1402 14.5303C32.2955 13.3349 33.5624 12.2508 34.9186 11.2871C45.0206 4.10975 59.8387 6.75629 71.2411 17.4879C75.2317 21.2454 77.1516 29.1363 78.1506 37.6501C79.7078 50.9062 78.8204 65.7121 78.6976 70.0499C78.6697 71.121 78.7701 71.7567 78.8259 71.8838C79.0882 72.5083 79.5515 72.6706 79.8752 72.7322C80.344 72.8161 80.7179 72.7266 81.0193 72.5699C81.4267 72.355 81.7617 71.9767 81.9179 71.393C82.0016 71.0706 82.0239 70.6218 82.0128 70.1433C82.0016 69.8114 81.9346 69.4488 82.0016 69.2109C82.4369 67.6876 82.9616 66.2001 83.475 64.7019C85.1885 59.6657 87.4042 54.9463 89.8655 50.2324C97.6848 35.2543 105.247 19.4282 118.067 8.01659C118.642 7.50452 118.698 6.61918 118.185 6.04163C117.677 5.46408 116.795 5.41146 116.214 5.92409C103.138 17.5612 95.3686 33.6598 87.3931 48.9346C85.3001 52.9444 83.3801 56.9599 81.7839 61.16C81.9458 53.7302 81.8844 43.4457 80.5282 34.346C79.3226 26.253 77.0288 19.1008 73.1498 15.448C60.6591 3.69169 44.3676 1.14143 33.3057 9.00436C32.1225 9.84606 30.9951 10.7717 29.9458 11.7757C24.1581 1.29647 11.7679 -2.90366 0.817554 2.10848C0.114323 2.42915 -0.192637 3.25966 0.125491 3.96201C0.4492 4.66436 1.27519 4.97441 1.97842 4.65374C11.846 0.137445 23.0363 4.16795 27.9199 13.9219ZM28.7291 17.4303C28.277 18.0705 27.8584 18.7343 27.4678 19.4204C27.2613 19.7886 26.904 20.4966 26.7534 21.1894C26.7199 21.3517 26.7143 21.6058 26.7143 21.7233C27.0994 21.9136 27.4008 22.0054 27.6463 21.8817C27.9533 21.7295 28.1096 21.3713 28.2603 20.9711C28.6398 19.9671 28.7626 18.6363 28.7291 17.4303Z" fill="#1A1A1A"/>
</svg>
